# xmcd
#
# Track frame offsets:
#	150
#	20627
#	44974
#	69992
#	89790
#	105995
#	131540
#	147446
#	161906
#	185138
#
# Disc length: 2776 seconds
# Revision: 0
# Processed by: cddbd v1.5.2PL0 Copyright (c) Steve Scherf et al.
# Submitted via: dBpowerAMP V12.0
#
DISCID=9a0ad60a
DTITLE=Nenad Mr Swagger Zlatanovic - Naked Blues
DYEAR=2013
DGENRE=Blues
TTITLE0=Can't Leave This Town
TTITLE1=Stay Close
TTITLE2=I'm Alright
TTITLE3=Mary Don't You Weep
TTITLE4=Life By The Drop
TTITLE5=Troublemaker
TTITLE6=Grinnin' In Your Face
TTITLE7=Woke Up Dreaming
TTITLE8=Soulshine
TTITLE9=Hear My Train A Comin'
EXTD=
EXTT0=
EXTT1=
EXTT2=
EXTT3=
EXTT4=
EXTT5=
EXTT6=
EXTT7=
EXTT8=
EXTT9=
PLAYORDER=
